# xmcd
#
# Track frame offsets:
# 150
# 16847
# 25347
# 33607
# 53580
# 74032
# 94272
# 107742
# 121457
# 141242
# 163142
# 170165
# 191902
# 202942
# 211687
# 222890
# 239310
# 249830
# 269490
# 282462
# 291415
#
# Disc length: 4133 seconds
#
# Revision: 0
# Processed by: cddbd v1.4b41PL1 Copyright (c) Steve Scherf et al.
# Submitted via: inCDius 1.1
#
DISCID=4a102315
DTITLE=Quinteto Armorial - Do Romance ao Galope Nordestino - Sete Flechas
DYEAR=1900
DGENRE=
TTITLE0=Revoada
TTITLE1=Romance da Bela Infanta
TTITLE2=Mourão
TTITLE3=Toada e Desafio
TTITLE4=Ponteio Acutilado
TTITLE5=Repente
TTITLE6=Tore
TTITLE7=Excelência (Tema Nordestino de Canto Fúnebre)
TTITLE8=Bendito
TTITLE9=Toada e Dobrada de Cavalhada
TTITLE10=Romance de Minervina (Romance Nordestino do Século XIX)
TTITLE11=Rasga
TTITLE12=Marcha da Folia
TTITLE13=Sete Flechas
TTITLE14=Xincuan
TTITLE15=Improviso
TTITLE16=Cocada
TTITLE17=Martelo Agalopado
TTITLE18=Cantiga
TTITLE19=Algodão
TTITLE20=Zabumba Lanceada
EXTD=
EXTT0=
EXTT1=
EXTT2=
EXTT3=
EXTT4=
EXTT5=
EXTT6=
EXTT7=
EXTT8=
EXTT9=
EXTT10=
EXTT11=
EXTT12=
EXTT13=
EXTT14=
EXTT15=
EXTT16=
EXTT17=
EXTT18=
EXTT19=
EXTT20=
PLAYORDER=
